# Blender 4.5.0
# www.blender.org
mtllib lighting.mtl
o Cube
v -0.225000 0.425000 0.225000
v -0.225000 0.375000 -0.225000
v 0.225000 0.425000 0.225000
v 0.225000 0.375000 -0.225000
v -0.225000 0.425000 -0.275000
v 0.225000 0.425000 -0.275000
v 0.225000 -0.025000 -0.275000
v -0.225000 -0.025000 -0.275000
v 0.225000 -0.025000 -0.325000
v -0.225000 -0.025000 -0.325000
v -0.225000 0.375000 0.275000
v 0.225000 0.375000 0.275000
v -0.225000 -0.025000 0.275000
v 0.225000 -0.025000 0.275000
v -0.225000 -0.025000 0.325000
v 0.225000 -0.025000 0.325000
v -0.245000 0.375000 -0.225000
v -0.245000 0.425000 0.225000
v -0.245000 0.425000 -0.275000
v -0.245000 0.375000 0.275000
v -0.245000 -0.025000 0.275000
v -0.245000 -0.025000 0.325000
v 0.245000 0.375000 -0.225000
v 0.245000 0.425000 0.225000
v 0.245000 0.425000 -0.275000
v 0.245000 0.375000 0.275000
v 0.245000 -0.025000 0.325000
v 0.245000 -0.025000 0.275000
v -0.225000 0.375000 0.195000
v -0.225000 0.345000 0.225000
v -0.225000 0.372716 0.206481
v -0.225000 0.366213 0.216213
v -0.225000 0.356481 0.222716
v 0.225000 0.375000 0.195000
v 0.225000 0.345000 0.225000
v 0.225000 0.372716 0.206481
v 0.225000 0.366213 0.216213
v 0.225000 0.356481 0.222716
v -0.225000 0.425000 0.245000
v -0.225000 0.395000 0.275000
v -0.225000 0.422716 0.256481
v -0.225000 0.416213 0.266213
v -0.225000 0.406480 0.272716
v 0.225000 0.395000 0.275000
v 0.225000 0.425000 0.245000
v 0.225000 0.406480 0.272716
v 0.225000 0.416213 0.266213
v 0.225000 0.422716 0.256481
v -0.245000 0.375000 0.195000
v -0.245000 0.345000 0.225000
v -0.245000 0.375000 0.255000
v -0.245000 0.405000 0.225000
v -0.245000 0.372716 0.206481
v -0.245000 0.366213 0.216213
v -0.245000 0.356481 0.222716
v -0.245000 0.395000 0.275000
v -0.245000 0.425000 0.245000
v -0.245000 0.406480 0.272716
v -0.245000 0.416213 0.266213
v -0.245000 0.422716 0.256481
v 0.245000 0.345000 0.225000
v 0.245000 0.375000 0.195000
v 0.245000 0.405000 0.225000
v 0.245000 0.375000 0.255000
v 0.245000 0.356481 0.222716
v 0.245000 0.366213 0.216213
v 0.245000 0.372716 0.206481
v 0.245000 0.425000 0.245000
v 0.245000 0.395000 0.275000
v 0.245000 0.422716 0.256481
v 0.245000 0.416213 0.266213
v 0.245000 0.406480 0.272716
v -0.225000 0.455000 -0.225000
v -0.225000 0.425000 -0.195000
v -0.225000 0.443519 -0.222716
v -0.225000 0.433787 -0.216213
v -0.225000 0.427284 -0.206481
v 0.225000 0.425000 -0.195000
v 0.225000 0.455000 -0.225000
v 0.225000 0.427284 -0.206481
v 0.225000 0.433787 -0.216213
v 0.225000 0.443519 -0.222716
v -0.245000 0.425000 -0.195000
v -0.245000 0.455000 -0.225000
v -0.245000 0.425000 -0.255000
v -0.245000 0.395000 -0.225000
v -0.245000 0.427284 -0.206481
v -0.245000 0.433787 -0.216213
v -0.245000 0.443519 -0.222716
v 0.245000 0.455000 -0.225000
v 0.245000 0.425000 -0.195000
v 0.245000 0.395000 -0.225000
v 0.245000 0.425000 -0.255000
v 0.245000 0.443519 -0.222716
v 0.245000 0.433787 -0.216213
v 0.245000 0.427284 -0.206481
v -0.225000 0.375000 -0.255000
v -0.225000 0.395000 -0.275000
v -0.205000 0.375000 -0.275000
v -0.225000 0.355000 -0.275000
v -0.225000 0.376522 -0.262654
v -0.225000 0.380858 -0.269142
v -0.225000 0.387346 -0.273478
v 0.225000 0.395000 -0.275000
v 0.225000 0.375000 -0.255000
v 0.225000 0.355000 -0.275000
v 0.205000 0.375000 -0.275000
v 0.225000 0.387346 -0.273478
v 0.225000 0.380858 -0.269142
v 0.225000 0.376522 -0.262654
v -0.245000 0.395000 -0.275000
v -0.245000 0.375000 -0.255000
v -0.245000 0.387346 -0.273478
v -0.245000 0.380858 -0.269142
v -0.245000 0.376522 -0.262654
v 0.245000 0.375000 -0.255000
v 0.245000 0.395000 -0.275000
v 0.245000 0.376522 -0.262654
v 0.245000 0.380858 -0.269142
v 0.245000 0.387346 -0.273478
v -0.225000 0.875000 -0.285000
v -0.225000 0.865050 -0.273816
v -0.225000 0.873667 -0.279841
v -0.225000 0.870025 -0.275747
v 0.225000 0.875000 -0.285000
v 0.225000 0.865050 -0.273816
v 0.225000 0.873667 -0.279841
v 0.225000 0.870025 -0.275747
v -0.225000 0.875000 -0.315000
v -0.225000 0.865049 -0.323894
v -0.225000 0.873667 -0.319852
v -0.225000 0.870025 -0.323107
v 0.225000 0.875000 -0.315000
v 0.225000 0.865049 -0.323894
v 0.225000 0.873667 -0.319852
v 0.225000 0.870025 -0.323107
v -0.245000 0.865048 -0.323894
v -0.235000 0.875000 -0.315000
v -0.243660 0.870024 -0.323107
v -0.240000 0.873667 -0.319852
v -0.245000 0.865049 -0.273815
v -0.235000 0.875000 -0.285000
v -0.243660 0.870024 -0.275747
v -0.240000 0.873667 -0.279841
v 0.245000 0.865049 -0.273815
v 0.235000 0.875000 -0.285000
v 0.243660 0.870024 -0.275747
v 0.240000 0.873667 -0.279841
v 0.235000 0.875000 -0.315000
v 0.245000 0.865048 -0.323894
v 0.240000 0.873667 -0.319852
v 0.243660 0.870024 -0.323107
vn -0.0000 -1.0000 -0.0000
vn -0.0000 -0.1240 0.9923
vn -0.0000 0.1240 0.9923
vn -1.0000 -0.0000 -0.0000
vn 1.0000 -0.0000 -0.0000
vn -0.0000 -0.1951 -0.9808
vn -0.0000 -0.5556 -0.8315
vn -0.0000 -0.8315 -0.5556
vn -0.0000 -0.9808 -0.1951
vn -0.0000 0.9808 0.1951
vn -0.0000 0.8315 0.5556
vn -0.0000 0.5556 0.8315
vn -0.0000 0.1951 0.9808
vn -0.0000 -0.1339 -0.9910
vn -0.0000 -0.0000 1.0000
vn -0.0000 1.0000 -0.0000
vn -0.5920 -0.0000 -0.8059
vn 0.5920 -0.0000 -0.8059
vn -0.0000 -0.0000 -1.0000
vn -0.0000 0.1243 -0.9922
vn -0.0000 0.9682 0.2502
vn -0.0000 0.7471 0.6647
vn -0.0000 0.3620 0.9322
vn -0.0000 0.9643 -0.2650
vn -0.0000 0.6664 -0.7456
vn -0.0000 0.1562 -0.9877
vn -0.0000 0.7472 0.6647
vn -0.0000 0.9643 -0.2649
vn -0.9656 0.2600 -0.0000
vn -0.7054 0.7088 -0.0000
vn -0.2576 0.9662 -0.0000
vn 0.9656 0.2600 -0.0000
vn 0.7054 0.7088 -0.0000
vn 0.2576 0.9662 -0.0000
vn -0.0000 0.1182 0.9930
vn -0.0000 -0.1104 -0.9939
vt 0.375000 0.750000
vt 0.375000 0.500000
vt 0.125000 0.500000
vt 0.125000 0.750000
vt 0.375000 1.000000
vt 0.375000 0.015565
vt 0.375000 0.000000
vt 0.515799 0.000000
vt 0.375000 0.750000
vt 0.375000 0.747626
vt 0.375000 0.734140
vt 0.525000 0.750000
vt 0.125000 0.750000
vt 0.125000 0.739711
vt 0.125000 0.739711
vt 0.125000 0.733333
vt 0.125000 0.733333
vt 0.375000 0.733333
vt 0.375000 0.739711
vt 0.375000 0.750000
vt 0.625000 0.750000
vt 0.875000 0.750000
vt 0.875000 0.750000
vt 0.625000 0.750000
vt 0.875000 0.750000
vt 0.625000 1.000000
vt 0.532403 1.000000
vt 0.532403 0.750000
vt 0.475000 1.000000
vt 0.475000 0.750000
vt 0.475000 1.000000
vt 0.625000 0.750000
vt 0.615899 0.750000
vt 0.589983 0.750000
vt 0.532403 0.750000
vt 0.475000 0.750000
vt 0.625000 0.000000
vt 0.475000 0.000000
vt 0.532403 0.000000
vt 0.581066 0.000000
vt 0.613582 0.000000
vt 0.625000 0.233333
vt 0.636420 0.239716
vt 0.625000 0.245118
vt 0.625000 0.248731
vt 0.625000 0.250000
vt 0.625000 0.250000
vt 0.475000 0.250000
vt 0.625000 0.500000
vt 0.625000 0.500000
vt 0.625000 0.502374
vt 0.625000 0.515848
vt 0.475000 0.500000
vt 0.875000 0.516667
vt 0.625000 0.516667
vt 0.625000 0.510289
vt 0.875000 0.510289
vt 0.875000 0.500000
vt 0.875000 0.500000
vt 0.875000 0.500000
vt 0.875000 0.510289
vt 0.375000 0.250000
vt 0.375000 0.250000
vt 0.398834 0.250000
vt 0.472875 0.250000
vt 0.375000 0.261111
vt 0.375000 0.250000
vt 0.475000 0.500000
vt 0.436732 0.500000
vt 0.392981 0.500000
vt 0.379673 0.500000
vt 0.375000 0.500000
vt 0.375000 0.488889
vt 0.381564 0.250000
vt 0.400259 0.250000
vt 0.436732 0.250000
vt 0.475000 0.250000
vt 0.381564 0.500000
vt 0.400259 0.500000
vt 0.436732 0.500000
vt 0.475000 0.500000
vt 0.625000 0.500000
vt 0.625000 0.500000
vt 0.625000 0.500000
vt 0.625000 0.250000
vt 0.625000 0.250000
vt 0.875000 0.500000
vt 0.875000 0.500000
vt 0.875000 0.500000
vt 0.625000 0.500000
s 0
f 16/1/1 14/1/1 28/1/1 27/1/1
f 7/2/1 8/3/1 10/3/1 9/2/1
f 4/2/2 2/3/2 8/3/2 7/2/2
f 13/4/1 14/1/1 16/1/1 15/4/1
f 12/1/3 11/5/3 15/5/3 16/1/3
f 15/5/3 11/5/3 20/5/3 22/5/3
f 13/4/1 15/4/1 22/4/1 21/4/1
f 12/1/3 16/1/3 27/1/3 26/1/3
f 49/6/4 53/7/4 54/7/4 55/7/4 50/7/4 51/7/4 52/8/4
f 61/1/5 65/9/5 66/1/5 67/10/5 62/11/5 63/12/5 64/1/5
f 30/4/6 50/4/6 55/4/6 33/4/6
f 33/4/7 55/4/7 54/13/7 32/4/7
f 32/4/8 54/13/8 53/14/8 31/15/8
f 31/15/9 53/14/9 49/16/9 29/17/9
f 29/17/9 34/18/9 36/19/9 31/15/9
f 31/15/8 36/19/8 37/9/8 32/4/8
f 32/4/7 37/9/7 38/20/7 33/4/7
f 33/4/6 38/20/6 35/20/6 30/4/6
f 45/21/10 39/22/10 41/23/10 48/24/10
f 48/24/11 41/23/11 42/25/11 47/21/11
f 47/21/12 42/26/12 43/27/12 46/28/12
f 46/28/13 43/27/13 40/29/13 44/30/13
f 39/22/10 57/25/10 60/22/10 41/23/10
f 41/23/11 60/22/11 59/25/11 42/25/11
f 42/26/12 59/26/12 58/27/12 43/27/12
f 43/27/13 58/27/13 56/31/13 40/29/13
f 68/32/10 45/21/10 48/24/10 70/33/10
f 70/33/11 48/24/11 47/21/11 71/34/11
f 71/34/12 47/21/12 46/28/12 72/35/12
f 72/35/13 46/28/13 44/30/13 69/36/13
f 61/1/6 35/20/6 38/20/6 65/9/6
f 65/9/7 38/20/7 37/9/7 66/1/7
f 66/1/8 37/9/8 36/19/8 67/10/8
f 67/10/9 36/19/9 34/18/9 62/11/9
f 2/3/1 29/17/1 49/16/1 17/3/1
f 30/4/14 35/20/14 14/1/14 13/4/14
f 30/4/14 13/4/14 21/4/14 50/4/14
f 2/3/1 4/2/1 34/18/1 29/17/1
f 34/18/1 4/2/1 23/2/1 62/11/1
f 14/1/14 35/20/14 61/1/14 28/1/14
f 12/1/15 44/30/15 40/29/15 11/5/15
f 3/21/16 1/25/16 39/22/16 45/21/16
f 39/22/16 1/25/16 18/25/16 57/25/16
f 11/5/15 40/29/15 56/31/15 20/5/15
f 44/30/15 12/1/15 26/1/15 69/36/15
f 3/21/16 45/21/16 68/32/16 24/21/16
f 18/37/4 52/8/4 51/7/4 20/7/4 56/38/4 58/39/4 59/40/4 60/41/4 57/37/4
f 20/7/4 51/7/4 50/7/4 21/7/4 22/7/4
f 64/1/5 63/12/5 24/21/5 68/32/5 70/33/5 71/34/5 72/35/5 69/36/5 26/1/5
f 61/1/5 64/1/5 26/1/5 27/1/5 28/1/5
f 83/42/4 87/43/4 88/44/4 89/45/4 84/46/4 85/47/4 86/48/4
f 90/49/5 94/50/5 95/49/5 96/51/5 91/52/5 92/53/5 93/50/5
f 74/54/10 78/55/10 80/56/10 77/57/10
f 77/57/11 80/56/11 81/49/11 76/58/11
f 76/58/12 81/49/12 82/50/12 75/58/12
f 75/58/13 82/50/13 79/50/13 73/59/13
f 90/49/13 79/50/13 82/50/13 94/50/13
f 94/50/12 82/50/12 81/49/12 95/49/12
f 95/49/11 81/49/11 80/56/11 96/51/11
f 96/51/10 80/56/10 78/55/10 91/52/10
f 73/59/13 84/59/13 89/59/13 75/58/13
f 75/58/12 89/59/12 88/60/12 76/58/12
f 76/58/11 88/60/11 87/61/11 77/57/11
f 77/57/10 87/61/10 83/54/10 74/54/10
f 1/25/16 74/54/16 83/54/16 18/25/16
f 78/55/16 74/54/16 1/25/16 3/21/16
f 78/55/16 3/21/16 24/21/16 91/52/16
f 49/6/4 52/8/4 18/37/4 83/42/4 86/48/4 17/62/4
f 23/2/5 92/53/5 91/52/5 24/21/5 63/12/5 62/11/5
f 97/63/17 101/62/17 102/62/17 103/64/17 98/65/17 99/66/17 100/67/17
f 104/68/18 108/69/18 109/70/18 110/71/18 105/2/18 106/72/18 107/73/18
f 97/63/9 112/62/9 115/74/9 101/62/9
f 101/62/8 115/74/8 114/75/8 102/62/8
f 102/62/7 114/75/7 113/76/7 103/64/7
f 103/64/6 113/76/6 111/77/6 98/65/6
f 116/2/9 105/2/9 110/71/9 118/78/9
f 118/78/8 110/71/8 109/70/8 119/79/8
f 119/79/7 109/70/7 108/69/7 120/80/7
f 120/80/6 108/69/6 104/68/6 117/81/6
f 5/47/19 98/65/19 111/77/19 19/47/19
f 99/66/19 98/65/19 5/47/19 6/50/19 104/68/19 107/73/19
f 100/67/20 99/66/20 107/73/20 106/72/20 9/2/20 10/62/20
f 97/63/1 2/62/1 17/62/1 112/62/1
f 2/62/4 97/63/4 100/67/4 10/62/4 8/62/4
f 4/2/1 105/2/1 116/2/1 23/2/1
f 104/68/19 6/50/19 25/50/19 117/81/19
f 106/72/5 105/2/5 4/2/5 7/2/5 9/2/5
f 17/62/4 86/48/4 85/47/4 19/47/4 111/77/4 113/76/4 114/75/4 115/74/4 112/62/4
f 93/50/5 92/53/5 23/2/5 116/2/5 118/78/5 119/79/5 120/80/5 117/81/5 25/50/5
f 146/50/21 125/82/21 127/82/21 148/83/21
f 148/83/22 127/82/22 128/49/22 147/84/22
f 147/84/23 128/49/23 126/84/23 145/50/23
f 138/58/24 129/59/24 131/59/24 140/60/24
f 140/85/25 131/47/25 132/47/25 139/85/25
f 139/85/26 132/47/26 130/86/26 137/85/26
f 122/60/23 126/84/23 128/49/23 124/59/23
f 124/59/27 128/49/27 127/82/27 123/87/27
f 123/87/21 127/82/21 125/82/21 121/59/21
f 129/59/28 133/50/28 135/82/28 131/59/28
f 131/47/25 135/82/25 136/50/25 132/47/25
f 132/47/26 136/50/26 134/50/26 130/86/26
f 137/85/29 141/85/29 143/85/29 139/85/29
f 139/85/30 143/85/30 144/86/30 140/85/30
f 140/60/31 144/60/31 142/88/31 138/58/31
f 121/59/21 142/88/21 144/60/21 123/87/21
f 123/87/22 144/60/22 143/88/22 124/59/22
f 124/59/23 143/88/23 141/89/23 122/60/23
f 145/50/32 150/50/32 152/50/32 147/84/32
f 147/84/33 152/50/33 151/50/33 148/83/33
f 148/83/34 151/50/34 149/90/34 146/50/34
f 150/50/26 134/50/26 136/50/26 152/50/26
f 152/50/25 136/50/25 135/82/25 151/50/25
f 151/50/24 135/82/24 133/50/24 149/90/24
f 73/59/35 79/50/35 126/84/35 122/60/35
f 121/59/16 125/82/16 133/50/16 129/59/16
f 121/59/16 129/59/16 138/58/16 142/88/16
f 73/59/35 122/60/35 141/89/35 84/59/35
f 126/84/35 79/50/35 90/49/35 145/50/35
f 133/50/16 125/82/16 146/50/16 149/90/16
f 6/50/36 5/47/36 130/86/36 134/50/36
f 130/86/36 5/47/36 19/47/36 137/85/36
f 6/50/36 134/50/36 150/50/36 25/50/36
f 19/47/4 85/47/4 84/46/4 141/85/4 137/85/4
f 90/49/5 93/50/5 25/50/5 150/50/5 145/50/5
